<svg xmlns="http://www.w3.org/2000/svg" viewBox="0 0 48 48"><defs><style>.cls-1{fill:#65b1fc}.cls-2{fill:#fff}.cls-3{fill:#256494}</style></defs><g id="_22-Adventure_games" data-name="22-Adventure games"><path class="cls-1" d="M35 30H9c-7 0-8-8-8-8h34v8zM40 24h7v4h-7z"/><path class="cls-2" d="M37 28h-2v-4h5v4h-3zM28 13v26c0 7-8 8-8 8V13h8z"/><path class="cls-1" d="M22 1h4v7h-4z"/><path class="cls-2" d="M26 11v2h-4V8h4v3z"/><path class="cls-3" d="M32 16v-2a2 2 0 0 0-2-2h-3V9h2V7h-2V1a1 1 0 0 0-1-1h-4a1 1 0 0 0-1 1v6h-2v2h2v3h-3a2 2 0 0 0-2 2v2h2v-2h1v33a1 1 0 0 0 1 1 1.032 1.032 0 0 0 .124-.008C23.194 47.608 29 45.235 29 39V14h1v2zM23 2h2v5h-2zm0 7h2v3h-2zm4 30c0 4.6-3.987 6.238-6 6.773V14h6z"/><path class="cls-3" d="M23 25h2v16h-2zM23 21h2v2h-2zM23 17h2v2h-2zM.25 21.338a1 1 0 0 0-.242.786C.392 25.194 2.765 31 9 31h8v-2H9c-4.6 0-6.238-3.987-6.773-6H17v-2H1a1 1 0 0 0-.75.338zM34 18h-2v2h2v1h-3v2h3v6h-3v2h3v1h-2v2h2a2 2 0 0 0 2-2V20a2 2 0 0 0-2-2z"/><path class="cls-3" d="M7 25h10v2H7zM47 23h-6v-2h-2v2h-2v2h2v2h-2v2h2v2h2v-2h6a1 1 0 0 0 1-1v-4a1 1 0 0 0-1-1zm-1 4h-5v-2h5z"/></g></svg>